<?xml version="1.0" encoding="utf-8"?>
<!-- Generator: Adobe Illustrator 18.0.0, SVG Export Plug-In . SVG Version: 6.00 Build 0)  -->
<!DOCTYPE svg PUBLIC "-//W3C//DTD SVG 1.1//EN" "http://www.w3.org/Graphics/SVG/1.1/DTD/svg11.dtd">
<svg version="1.1" id="Layer_1" xmlns="http://www.w3.org/2000/svg" xmlns:xlink="http://www.w3.org/1999/xlink" x="0px" y="0px"
	 viewBox="0 0 612 792" enable-background="new 0 0 612 792" xml:space="preserve">
<g>
	<polygon fill="none" points="130.5,213.5 130.5,564.5 481.5,564.5 481.5,437.5 481.5,437.5 481.5,340.5 481.5,340.5
		481.5,213.5 	"/>
	<polygon stroke="#000000" stroke-width="10" stroke-miterlimit="10" points="481.5,407.5 481.5,564.5 130.5,564.5 130.5,213.5
		481.5,213.5 481.5,340.5 511.5,370.5 511.5,183.5 100.5,183.5 100.5,594.5 511.5,594.5 511.5,437.5 	"/>
</g>
<polygon stroke="#000000" stroke-width="15" stroke-miterlimit="10" points="421,302 191,302 191,272.5 391,272.5 "/>
<polygon stroke="#000000" stroke-width="15" stroke-miterlimit="10" points="421,505.5 221,505.5 191,476 421,476 "/>
<rect x="397.6" y="388" stroke="#000000" stroke-width="15" stroke-miterlimit="10" width="23.4" height="88"/>
<rect x="191" y="302" stroke="#000000" stroke-width="15" stroke-miterlimit="10" width="23.4" height="88"/>
<rect x="191" y="373.3" stroke="#000000" stroke-width="15" stroke-miterlimit="10" width="230" height="29.5"/>
</svg>
